<!DOCTYPE svg PUBLIC "-//W3C//DTD SVG 1.1//EN" "http://www.w3.org/Graphics/SVG/1.1/DTD/svg11.dtd">
<!-- Uploaded to: SVG Repo, www.svgrepo.com, Transformed by: SVG Repo Mixer Tools -->
<svg width="800px" height="800px" viewBox="-9.6 -9.6 67.20 67.20" fill="none" xmlns="http://www.w3.org/2000/svg">
<g id="SVGRepo_bgCarrier" stroke-width="0"/>
<g id="SVGRepo_tracerCarrier" stroke-linecap="round" stroke-linejoin="round"/>
<g id="SVGRepo_iconCarrier"> <rect width="48" height="48" fill="white" fill-opacity="0.01" style="--darkreader-inline-fill: #28292a;" data-darkreader-inline-fill=""/> <path fill-rule="evenodd" clip-rule="evenodd" d="M16.8712 33.0436L15.9976 44.7036C15.9362 45.5229 16.6646 46.0872 17.3161 45.722C21.9289 43.1382 36.3783 33.6479 43.7017 12.7899C44.0376 11.8331 43.1352 10.9697 42.3646 11.5094C38.0387 14.539 28.5846 20.8006 22.7421 21.9934C22.7421 21.9934 26.4836 19.3946 28.7231 15.4053C28.9426 15.0143 28.9244 14.5136 28.6796 14.1606L20.5127 2.38925C20.0287 1.69147 19.0354 1.98057 18.8606 2.87002L16.3181 15.8073L4.38437 26.2226C3.78602 26.7446 3.90808 27.7996 4.5989 28.079L16.8712 33.0436Z" fill="#b8860b" style="--darkreader-inline-fill: #906e1b;" data-darkreader-inline-fill=""/> <path fill-rule="evenodd" clip-rule="evenodd" d="M37.9745 28.448C37.2188 29.5025 35.5908 31.6717 34.0876 32.9974C33.7871 33.2624 33.8276 33.7068 34.1724 33.9234L42.1145 38.909C42.5926 39.2091 43.2384 38.8529 43.1576 38.3323C42.7882 35.9496 41.7237 30.9818 39.0328 28.3741C38.7322 28.083 38.2142 28.1136 37.9745 28.448Z" fill="#b8860b" style="--darkreader-inline-fill: #906e1b;" data-darkreader-inline-fill=""/> </g>
</svg>